# xmcd
#
# Track frame offsets:
#	150
#	22249
#	44742
#	66051
#	89610
#	114896
#	139123
#	159527
#	184472
#	208311
#
# Disc length: 3313 seconds
#
# Revision: 1
# Processed by: cddbd v1.5.2PL0 Copyright (c) Steve Scherf et al.
# Submitted via: EZCDAudioConverter 8.0.2.1
#
DISCID=990cef0a
DTITLE=Sơn Tuyền - Mống Chuồn
DYEAR=1997
DGENRE=country
TTITLE0=Sơn Tuyền - Mống Chuồn
TTITLE1=Sơn Tuyền - Sa mưa giông
TTITLE2=Sơn Tuyền - Gợi nhớ quê hương
TTITLE3=Sơn Tuyền - Đau xót lý chim quyên
TTITLE4=Sơn Tuyền - Trống cơm
TTITLE5=Sơn Tuyền - Gió mùa thu
TTITLE6=Sơn Tuyền - Đôi ta
TTITLE7=Sơn Tuyền - Lời tạ từ
TTITLE8=Sơn Tuyền, Tuấn Vũ - Hà Tiên
TTITLE9=Sơn Tuyền - LK Dân ca ba miền
EXTD=
EXTT0=
EXTT1=
EXTT2=
EXTT3=
EXTT4=
EXTT5=
EXTT6=
EXTT7=
EXTT8=
EXTT9=
PLAYORDER=
